<svg width="44" height="36" viewBox="0 0 44 36" fill="none" xmlns="http://www.w3.org/2000/svg">
<rect x="11.8982" y="1.8475" width="32.1939" height="29.1791" rx="5.72456" transform="rotate(10 11.8982 1.8475)" fill="#7868E6" stroke="white" stroke-width="1.04083"/>
<rect x="1.21579" y="1.54141" width="32.9285" height="29.9137" rx="6.09187" fill="#7868E6" stroke="white" stroke-width="1.77545"/>
<rect x="6.24622" y="13.6737" width="5.91816" height="2.36726" rx="1.18363" fill="white"/>
<rect x="6.24622" y="18.4082" width="5.91816" height="2.36726" rx="1.18363" fill="white"/>
<rect x="6.12329" y="23.2427" width="23.1136" height="2.36726" rx="1.18363" fill="white"/>
<path fill-rule="evenodd" clip-rule="evenodd" d="M27.2392 16.2204C28.0129 16.6177 28.547 17.4333 28.547 18.3695C28.547 19.6928 27.4803 20.7754 26.1769 20.7754H16.8956C15.592 20.7757 14.5255 19.6928 14.5255 18.3695C14.5255 17.4333 15.0594 16.6177 15.8331 16.2204C15.9391 16.1661 16.0109 16.0805 16.0468 15.9653C16.0821 15.8525 16.073 15.7425 16.0199 15.6379C15.6929 14.9933 15.6659 14.3052 15.9415 13.6364C16.217 12.9672 16.718 12.5035 17.3997 12.287C19.764 11.5358 22.7262 11.2134 22.5229 7.75549C23.9159 8.48335 24.7958 10.001 24.6845 11.6439C24.6764 11.7638 24.7119 11.8699 24.7905 11.9598C24.8689 12.0498 24.9685 12.0987 25.0869 12.1048C26.3329 12.1714 27.332 13.2266 27.332 14.5077C27.332 14.9131 27.232 15.2957 27.0556 15.6319C26.9998 15.7382 26.9896 15.8504 27.0255 15.9653C27.0614 16.0805 27.1334 16.1663 27.2392 16.2204Z" fill="white"/>
</svg>
